<mxfile host="app.diagrams.net" modified="2023-02-28T14:52:40.390Z" agent="5.0 (Windows NT 10.0; Win64; x64) AppleWebKit/537.36 (KHTML, like Gecko) Chrome/110.0.0.0 Safari/537.36" etag="o0luV9HopeW8XW4ZJKXg" version="20.8.20" type="github">
  <diagram id="s8lGNTlZyGDKWvNCeoKv" name="Página-1">
    <mxGraphModel dx="713" dy="398" grid="1" gridSize="10" guides="1" tooltips="1" connect="1" arrows="1" fold="1" page="1" pageScale="1" pageWidth="827" pageHeight="1169" math="0" shadow="0">
      <root>
        <mxCell id="0" />
        <mxCell id="1" parent="0" />
        <mxCell id="dWDuutjJLsEd1OnEmu8--1" value="Início" style="ellipse;whiteSpace=wrap;html=1;" parent="1" vertex="1">
          <mxGeometry x="40" y="80" width="120" height="80" as="geometry" />
        </mxCell>
        <mxCell id="MhZt8Z-3WHsw85Al3VmY-1" value="saldo" style="html=1;strokeWidth=2;shape=manualInput;whiteSpace=wrap;rounded=1;size=26;arcSize=11;" vertex="1" parent="1">
          <mxGeometry x="50" y="200" width="100" height="60" as="geometry" />
        </mxCell>
        <mxCell id="MhZt8Z-3WHsw85Al3VmY-2" value="" style="strokeWidth=2;html=1;shape=mxgraph.flowchart.decision;whiteSpace=wrap;" vertex="1" parent="1">
          <mxGeometry x="50" y="310" width="100" height="100" as="geometry" />
        </mxCell>
        <mxCell id="MhZt8Z-3WHsw85Al3VmY-3" value="Saldo inicial: saldo" style="strokeWidth=2;html=1;shape=mxgraph.flowchart.display;whiteSpace=wrap;" vertex="1" parent="1">
          <mxGeometry x="190" y="200" width="100" height="60" as="geometry" />
        </mxCell>
      </root>
    </mxGraphModel>
  </diagram>
</mxfile>
